<svg xmlns="http://www.w3.org/2000/svg" xmlns:xlink="http://www.w3.org/1999/xlink" width="400" zoomAndPan="magnify" viewBox="0 0 300 74.999997" height="100" preserveAspectRatio="xMidYMid meet" version="1.0"><defs><clipPath id="d357c8908a"><path d="M 93.441406 27 L 108.804688 27 L 108.804688 47.992188 L 93.441406 47.992188 Z M 93.441406 27 " clip-rule="nonzero"/></clipPath><clipPath id="290498c4c6"><path d="M 93.441406 26.300781 L 108.804688 26.300781 L 108.804688 47 L 93.441406 47 Z M 93.441406 26.300781 " clip-rule="nonzero"/></clipPath><clipPath id="22588b5a42"><path d="M 93.441406 26.300781 L 108.804688 26.300781 L 108.804688 47.992188 L 93.441406 47.992188 Z M 93.441406 26.300781 " clip-rule="nonzero"/></clipPath><clipPath id="41966232f0"><path d="M 109.695312 32 L 125.359375 32 L 125.359375 47.960938 L 109.695312 47.960938 Z M 109.695312 32 " clip-rule="nonzero"/></clipPath><clipPath id="1c241e0e74"><path d="M 109.695312 31.394531 L 125.359375 31.394531 L 125.359375 47.960938 L 109.695312 47.960938 Z M 109.695312 31.394531 " clip-rule="nonzero"/></clipPath><clipPath id="529ac7c2c4"><path d="M 125.253906 28 L 140.617188 28 L 140.617188 48.113281 L 125.253906 48.113281 Z M 125.253906 28 " clip-rule="nonzero"/></clipPath><clipPath id="42435f920a"><path d="M 125.253906 27.628906 L 140.617188 27.628906 L 140.617188 48 L 125.253906 48 Z M 125.253906 27.628906 " clip-rule="nonzero"/></clipPath><clipPath id="1a2738cac5"><path d="M 142.21875 28 L 157.582031 28 L 157.582031 48 L 142.21875 48 Z M 142.21875 28 " clip-rule="nonzero"/></clipPath><clipPath id="e53f4d30df"><path d="M 142.21875 28 L 157.582031 28 L 157.582031 48.050781 L 142.21875 48.050781 Z M 142.21875 28 " clip-rule="nonzero"/></clipPath><clipPath id="5e191281a7"><path d="M 142.21875 27.265625 L 157.582031 27.265625 L 157.582031 48 L 142.21875 48 Z M 142.21875 27.265625 " clip-rule="nonzero"/></clipPath><clipPath id="54a1e61235"><path d="M 158.296875 28.160156 L 175.46875 28.160156 L 175.46875 48.644531 L 158.296875 48.644531 Z M 158.296875 28.160156 " clip-rule="nonzero"/></clipPath><clipPath id="202c10e4d8"><path d="M 158.296875 28.160156 L 175.46875 28.160156 L 175.46875 48 L 158.296875 48 Z M 158.296875 28.160156 " clip-rule="nonzero"/></clipPath><clipPath id="dc24b15968"><path d="M 176.207031 29 L 190.664062 29 L 190.664062 48.726562 L 176.207031 48.726562 Z M 176.207031 29 " clip-rule="nonzero"/></clipPath><clipPath id="3f9fceea44"><path d="M 176.207031 28.242188 L 190.664062 28.242188 L 190.664062 48 L 176.207031 48 Z M 176.207031 28.242188 " clip-rule="nonzero"/></clipPath><clipPath id="4d81403488"><path d="M 193.449219 29 L 206.703125 29 L 206.703125 47.902344 L 193.449219 47.902344 Z M 193.449219 29 " clip-rule="nonzero"/></clipPath><clipPath id="cf241e4c69"><path d="M 193.449219 28.320312 L 206.703125 28.320312 L 206.703125 47 L 193.449219 47 Z M 193.449219 28.320312 " clip-rule="nonzero"/></clipPath><clipPath id="401748719e"><path d="M 193.449219 28.320312 L 206.703125 28.320312 L 206.703125 47.902344 L 193.449219 47.902344 Z M 193.449219 28.320312 " clip-rule="nonzero"/></clipPath></defs><g clip-path="url(#d357c8908a)"><path stroke-linecap="butt" transform="matrix(0.108921, 0, 0, 0.108609, -968.423123, 10.401182)" fill-opacity="1" fill="#0061ff" fill-rule="nonzero" stroke-linejoin="round" d="M 9750.095505 176.604457 C 9758.308141 173.906997 9766.018694 171.389367 9773.263027 169.087534 C 9780.471498 166.785701 9788.074462 164.591766 9796.071919 162.50573 C 9804.10524 160.45566 9811.744067 158.801217 9819.09599 157.578368 C 9824.690623 156.643249 9830.464572 156.175689 9836.381974 156.175689 C 9846.208446 156.175689 9852.663793 156.427452 9855.712151 156.966944 C 9860.30262 157.866097 9864.67791 159.268777 9868.766297 161.246915 C 9872.854683 163.225053 9876.512713 165.850581 9879.776249 169.1235 C 9882.96806 172.432385 9885.586061 176.316728 9887.630254 180.77653 C 9888.455104 182.610803 9888.849598 184.552975 9888.849598 186.567079 C 9888.849598 194.155935 9884.725348 203.543098 9876.405124 214.656635 C 9868.084899 225.770173 9859.764674 235.481031 9851.372723 243.753244 C 9843.016636 252.025457 9836.740604 257.95987 9832.616355 261.556484 L 9850.906504 325.720081 L 9824.260267 344.961967 L 9777.566592 211.599513 C 9777.42314 211.599513 9776.777605 212.246904 9775.629988 213.541685 C 9774.482371 214.836466 9772.976123 216.490909 9771.111245 218.576945 C 9769.246367 220.627015 9768.062887 221.921796 9767.596667 222.389356 C 9767.417352 222.389356 9766.735955 220.914744 9765.6242 218.001487 C 9764.512446 215.088229 9763.006199 211.024055 9761.141321 205.844931 C 9759.276443 200.665806 9757.196387 194.911223 9754.829426 188.545216 C 9752.498329 182.215175 9750.920355 178.222934 9750.095505 176.604457 Z M 9815.904179 204.873845 L 9824.260267 234.905573 C 9828.456242 230.625602 9833.692246 224.799087 9839.932414 217.390062 C 9846.172583 210.017003 9849.292667 204.658048 9849.292667 201.313197 C 9849.292667 200.054382 9848.754722 199.299093 9847.642968 199.083296 C 9844.594609 198.399939 9841.582114 198.076244 9838.605482 198.076244 C 9829.675586 198.076244 9822.072622 200.342111 9815.904179 204.873845 Z M 9815.904179 204.873845 " stroke="#0061ff" stroke-width="2.08" stroke-opacity="1" stroke-miterlimit="2"/></g><g clip-path="url(#290498c4c6)"><path fill="#ffb500" d="M 93.570312 28.628906 C 94.464844 28.335938 95.304688 28.0625 96.09375 27.8125 C 96.878906 27.5625 97.707031 27.324219 98.578125 27.101562 C 99.453125 26.875 100.285156 26.695312 101.085938 26.566406 C 101.695312 26.460938 102.324219 26.410156 102.96875 26.410156 C 104.039062 26.410156 104.742188 26.4375 105.074219 26.5 C 105.574219 26.59375 106.050781 26.75 106.496094 26.960938 C 106.941406 27.175781 107.339844 27.460938 107.695312 27.820312 C 108.042969 28.175781 108.328125 28.597656 108.550781 29.082031 C 108.640625 29.28125 108.683594 29.492188 108.683594 29.714844 C 108.683594 30.539062 108.234375 31.554688 107.328125 32.761719 C 106.421875 33.96875 105.515625 35.023438 104.601562 35.921875 C 103.691406 36.820312 103.007812 37.464844 102.558594 37.855469 L 104.550781 44.828125 L 101.648438 46.914062 L 96.5625 32.429688 C 96.546875 32.429688 96.476562 32.5 96.351562 32.640625 C 96.226562 32.78125 96.0625 32.964844 95.859375 33.1875 C 95.65625 33.414062 95.527344 33.550781 95.476562 33.601562 C 95.457031 33.601562 95.382812 33.445312 95.261719 33.128906 C 95.140625 32.808594 94.976562 32.371094 94.773438 31.808594 C 94.570312 31.242188 94.34375 30.617188 94.085938 29.929688 C 93.832031 29.238281 93.660156 28.808594 93.570312 28.628906 Z M 100.738281 31.703125 L 101.648438 34.960938 C 102.105469 34.496094 102.675781 33.863281 103.355469 33.0625 C 104.035156 32.257812 104.375 31.675781 104.375 31.316406 C 104.375 31.175781 104.316406 31.09375 104.195312 31.070312 C 103.863281 31 103.535156 30.960938 103.210938 30.960938 C 102.238281 30.960938 101.410156 31.207031 100.738281 31.703125 Z M 100.738281 31.703125 " fill-opacity="1" fill-rule="nonzero"/></g><g clip-path="url(#22588b5a42)"><path stroke-linecap="butt" transform="matrix(0.108921, 0, 0, 0.108609, -968.423123, 9.449548)" fill="none" stroke-linejoin="round" d="M 9750.095505 176.590727 C 9758.308141 173.893266 9766.018694 171.375636 9773.263027 169.073803 C 9780.471498 166.77197 9788.074462 164.578036 9796.071919 162.527966 C 9804.10524 160.441929 9811.744067 158.787487 9819.09599 157.600604 C 9824.690623 156.629518 9830.464572 156.161958 9836.381974 156.161958 C 9846.208446 156.161958 9852.663793 156.413721 9855.712151 156.98918 C 9860.30262 157.852367 9864.67791 159.291013 9868.766297 161.233184 C 9872.854683 163.211322 9876.512713 165.836851 9879.776249 169.145736 C 9882.96806 172.418655 9885.586061 176.302998 9887.630254 180.762799 C 9888.455104 182.597073 9888.849598 184.539244 9888.849598 186.589314 C 9888.849598 194.17817 9884.725348 203.529367 9876.405124 214.642905 C 9868.084899 225.756443 9859.764674 235.467301 9851.372723 243.739514 C 9843.016636 252.011726 9836.740604 257.94614 9832.616355 261.542754 L 9850.906504 325.742317 L 9824.260267 344.948237 L 9777.566592 211.585783 C 9777.42314 211.585783 9776.777605 212.233174 9775.629988 213.527955 C 9774.482371 214.822736 9772.976123 216.513144 9771.111245 218.563214 C 9769.246367 220.649251 9768.062887 221.908066 9767.596667 222.375625 C 9767.417352 222.375625 9766.735955 220.93698 9765.6242 218.023722 C 9764.512446 215.074499 9763.006199 211.046291 9761.141321 205.867166 C 9759.276443 200.652076 9757.196387 194.897493 9754.829426 188.567452 C 9752.498329 182.201445 9750.920355 178.24517 9750.095505 176.590727 Z M 9815.904179 204.896081 L 9824.260267 234.891843 C 9828.456242 230.611872 9833.692246 224.785357 9839.932414 217.412298 C 9846.172583 210.003273 9849.292667 204.644318 9849.292667 201.335433 C 9849.292667 200.040651 9848.754722 199.285362 9847.642968 199.069566 C 9844.594609 198.422175 9841.582114 198.062514 9838.605482 198.062514 C 9829.675586 198.062514 9822.072622 200.328381 9815.904179 204.896081 Z M 9815.904179 204.896081 " stroke="#0061ff" stroke-width="2.08" stroke-opacity="1" stroke-miterlimit="2"/></g><g clip-path="url(#41966232f0)"><path stroke-linecap="butt" transform="matrix(0.0895966, 0, 0, 0.0885998, -711.397904, 24.104574)" fill-opacity="1" fill="#0061ff" fill-rule="nonzero" stroke-linejoin="round" d="M 9313.965473 109.790922 C 9330.009612 122.047577 9338.075279 138.448568 9338.075279 158.905717 C 9338.075279 165.959907 9337.072521 173.23454 9335.067003 180.729616 C 9333.061486 188.224693 9330.271201 195.411148 9326.696148 202.244895 C 9323.077497 209.078641 9319.110061 215.206968 9314.793839 220.541699 C 9307.643733 229.359436 9300.624422 236.810423 9293.64871 242.850573 C 9286.716595 248.846634 9279.740883 253.784567 9272.677974 257.532105 C 9265.615065 261.279644 9258.770147 264.013142 9252.230416 265.732601 C 9245.647088 267.407971 9239.194554 268.245656 9232.872814 268.245656 C 9218.223818 268.245656 9204.969964 264.321763 9193.111252 256.473977 C 9185.089183 251.051069 9178.462256 242.541953 9173.230472 231.034806 C 9167.955089 219.48357 9165.339197 207.138739 9165.339197 193.912133 C 9165.339197 172.661387 9172.096918 154.364583 9185.568763 138.977632 C 9193.503636 129.895363 9201.874491 121.827133 9210.594132 114.772944 C 9219.357371 107.718754 9228.425797 102.16358 9237.755813 98.107421 C 9247.129427 94.095351 9256.677433 92.067271 9266.443431 92.067271 C 9282.531168 92.067271 9298.357316 97.975155 9313.965473 109.790922 Z M 9293.910299 136.02369 C 9292.558755 143.606944 9289.812068 149.867537 9285.670239 154.849558 C 9281.528409 159.787491 9277.255785 162.256457 9272.852367 162.256457 C 9270.10568 162.256457 9267.66418 161.198329 9265.658663 159.126161 C 9264.568708 158.023944 9263.653146 156.392662 9262.955574 154.232317 C 9262.258003 152.071971 9261.865619 149.955714 9261.865619 147.927635 C 9261.865619 143.783298 9263.129967 139.683051 9265.571467 135.67098 C 9268.056564 131.614821 9272.024001 128.131815 9277.430178 125.133785 C 9270.934046 125.133785 9265.397074 126.6328 9260.819263 129.674919 C 9256.241451 132.67295 9252.840791 136.508665 9250.704479 141.226155 C 9248.524569 145.899555 9247.434614 150.749311 9247.434614 155.775421 C 9247.434614 163.623207 9249.745319 169.398824 9254.366728 173.058185 C 9259.9037 177.511142 9265.48427 179.759665 9271.021242 179.759665 C 9277.86616 179.759665 9283.664721 176.717546 9288.329729 170.589219 C 9292.994737 164.50498 9295.34904 156.921727 9295.34904 147.927635 C 9295.34904 143.695121 9294.86946 139.727139 9293.910299 136.02369 Z M 9293.910299 136.02369 " stroke="#0061ff" stroke-width="2.08" stroke-opacity="1" stroke-miterlimit="2"/></g><g clip-path="url(#1c241e0e74)"><path stroke-linecap="butt" transform="matrix(0.0895966, 0, 0, 0.0885998, -711.397904, 23.328262)" fill-opacity="1" fill="#ffb500" fill-rule="nonzero" stroke-linejoin="round" d="M 9313.965473 109.779281 C 9330.009612 122.035936 9338.075279 138.436926 9338.075279 158.894076 C 9338.075279 165.948266 9337.072521 173.222899 9335.067003 180.717975 C 9333.061486 188.213051 9330.271201 195.399507 9326.696148 202.233253 C 9323.077497 209.111088 9319.110061 215.195327 9314.793839 220.574146 C 9307.643733 229.347794 9300.624422 236.798782 9293.64871 242.838932 C 9286.716595 248.879082 9279.740883 253.772926 9272.677974 257.520464 C 9265.615065 261.312091 9258.770147 264.001501 9252.230416 265.720959 C 9245.647088 267.39633 9239.194554 268.278103 9232.872814 268.278103 C 9218.223818 268.278103 9204.969964 264.310122 9193.111252 256.462336 C 9185.089183 251.039427 9178.462256 242.5744 9173.230472 231.023165 C 9167.955089 219.516018 9165.339197 207.127097 9165.339197 193.900492 C 9165.339197 172.693834 9172.096918 154.352942 9185.568763 138.965991 C 9193.503636 129.883721 9201.874491 121.815492 9210.594132 114.761303 C 9219.357371 107.707113 9228.425797 102.151939 9237.755813 98.139868 C 9247.129427 94.083709 9256.677433 92.05563 9266.443431 92.05563 C 9282.531168 92.05563 9298.357316 97.963514 9313.965473 109.779281 Z M 9293.910299 136.012049 C 9292.558755 143.595302 9289.812068 149.899984 9285.670239 154.837917 C 9281.528409 159.77585 9277.255785 162.244816 9272.852367 162.244816 C 9270.10568 162.244816 9267.66418 161.230776 9265.658663 159.114519 C 9264.568708 158.012302 9263.653146 156.381021 9262.955574 154.220675 C 9262.258003 152.06033 9261.865619 149.944073 9261.865619 147.915994 C 9261.865619 143.771657 9263.129967 139.715498 9265.571467 135.659339 C 9268.056564 131.647269 9272.024001 128.120174 9277.430178 125.122143 C 9270.934046 125.122143 9265.397074 126.621159 9260.819263 129.663278 C 9256.241451 132.661309 9252.840791 136.541113 9250.704479 141.214513 C 9248.524569 145.887914 9247.434614 150.737669 9247.434614 155.763779 C 9247.434614 163.611565 9249.745319 169.387183 9254.366728 173.046544 C 9259.9037 177.54359 9265.48427 179.748024 9271.021242 179.748024 C 9277.86616 179.748024 9283.664721 176.705905 9288.329729 170.621666 C 9292.994737 164.493339 9295.34904 156.954174 9295.34904 147.915994 C 9295.34904 143.727568 9294.86946 139.759587 9293.910299 136.012049 Z M 9293.910299 136.012049 " stroke="#0061ff" stroke-width="2.08" stroke-opacity="1" stroke-miterlimit="2"/></g><g clip-path="url(#529ac7c2c4)"><path stroke-linecap="butt" transform="matrix(0.0863527, 0, 0, 0.0862133, -442.91979, 17.012964)" fill-opacity="1" fill="#0061ff" fill-rule="nonzero" stroke-linejoin="round" d="M 6585.790926 154.716264 L 6637.450409 133.013187 L 6637.450409 166.406022 L 6664.908646 137.181628 L 6699.92129 166.406022 L 6649.980774 238.810025 L 6754.113988 318.871273 L 6756.55673 359.649498 L 6650.795022 302.19751 L 6653.328236 352.128181 L 6604.880507 353.079673 L 6595.742841 176.374032 L 6580.769733 179.726909 Z M 6585.790926 154.716264 " stroke="#0061ff" stroke-width="2.08" stroke-opacity="1" stroke-miterlimit="2"/></g><g clip-path="url(#42435f920a)"><path stroke-linecap="butt" transform="matrix(0.0863527, 0, 0, 0.0862133, -442.91979, 16.257562)" fill-opacity="1" fill="#ffb500" fill-rule="nonzero" stroke-linejoin="round" d="M 6585.790926 154.6883 L 6637.450409 133.030532 L 6637.450409 166.378058 L 6664.908646 137.198973 L 6699.92129 166.378058 L 6649.980774 238.82737 L 6754.113988 318.888618 L 6756.55673 359.666843 L 6650.795022 302.214855 L 6653.328236 352.145526 L 6604.880507 353.051709 L 6595.742841 176.346068 L 6580.769733 179.698945 Z M 6585.790926 154.6883 " stroke="#0061ff" stroke-width="2.08" stroke-opacity="1" stroke-miterlimit="2"/></g><g clip-path="url(#1a2738cac5)"><path fill="#0061ff" d="M 148.054688 43.625 L 157.488281 44.0625 L 157.417969 47.949219 L 144.296875 47.296875 L 143.570312 33.789062 L 142.308594 34.015625 L 142.535156 29.761719 L 153.433594 28.140625 L 153.65625 32.035156 L 147.472656 33.054688 L 147.613281 35.851562 L 153.730469 34.820312 L 153.953125 38.042969 L 147.769531 39.21875 Z M 148.054688 43.625 " fill-opacity="1" fill-rule="nonzero"/></g><g clip-path="url(#e53f4d30df)"><path stroke-linecap="butt" transform="matrix(0.0883959, 0, 0, 0.0880423, -105.397089, 18.141487)" fill="none" stroke-linejoin="round" d="M 2867.23422 289.4461 L 2973.95402 294.4153 L 2973.158593 338.561316 L 2824.723062 331.151884 L 2816.503649 177.72784 L 2802.230152 180.301176 L 2804.793195 131.984581 L 2928.084392 113.571921 L 2930.603244 157.806673 L 2860.649852 169.386683 L 2862.240706 201.154068 L 2931.442862 189.440954 L 2933.961714 226.044435 L 2864.008322 239.399159 Z M 2867.23422 289.4461 " stroke="#0061ff" stroke-width="2.08" stroke-opacity="1" stroke-miterlimit="2"/></g><g clip-path="url(#5e191281a7)"><path stroke-linecap="butt" transform="matrix(0.0883959, 0, 0, 0.0880423, -105.397089, 17.37006)" fill-opacity="1" fill="#ffb500" fill-rule="nonzero" stroke-linejoin="round" d="M 2867.23422 289.423266 L 2973.95402 294.436834 L 2973.158593 338.58285 L 2824.723062 331.12905 L 2816.503649 177.749374 L 2802.230152 180.278341 L 2804.793195 131.961747 L 2928.084392 113.549087 L 2930.603244 157.783839 L 2860.649852 169.408217 L 2862.240706 201.131234 L 2931.442862 189.41812 L 2933.961714 226.065968 L 2864.008322 239.376325 Z M 2867.23422 289.423266 " stroke="#0061ff" stroke-width="2.08" stroke-opacity="1" stroke-miterlimit="2"/></g><g clip-path="url(#54a1e61235)"><path stroke-linecap="butt" transform="matrix(0.0805024, 0, 0, 0.0800793, 143.92618, 20.921811)" fill-opacity="1" fill="#0061ff" fill-rule="nonzero" stroke-linejoin="round" d="M 290.601839 100.1457 L 390.608617 340.922732 L 348.053574 345.117794 L 300.549141 234.338896 L 273.909781 230.143834 L 232.325206 318.48403 L 179.725814 321.020579 Z M 275.656624 205.949059 L 299.772766 209.314865 L 289.776941 170.144695 Z M 275.656624 205.949059 " stroke="#0061ff" stroke-width="2.08" stroke-opacity="1" stroke-miterlimit="2"/></g><g clip-path="url(#202c10e4d8)"><path stroke-linecap="butt" transform="matrix(0.0805024, 0, 0, 0.0800793, 143.92618, 20.220155)" fill-opacity="1" fill="#ffb500" fill-rule="nonzero" stroke-linejoin="round" d="M 290.601839 100.176142 L 390.608617 340.953174 L 348.053574 345.099456 L 300.549141 234.320558 L 273.909781 230.174276 L 232.325206 318.465692 L 179.725814 321.002241 Z M 275.656624 205.979501 L 299.772766 209.296527 L 289.776941 170.126357 Z M 275.656624 205.979501 " stroke="#0061ff" stroke-width="2.08" stroke-opacity="1" stroke-miterlimit="2"/></g><g clip-path="url(#dc24b15968)"><path stroke-linecap="butt" transform="matrix(0.102534, 0, 0, 0.102575, -823.390823, 13.223569)" fill-opacity="1" fill="#0061ff" fill-rule="nonzero" stroke-linejoin="round" d="M 9750.123795 176.614478 C 9758.314678 173.910671 9766.048395 171.397272 9773.248752 169.074283 C 9780.487206 166.789375 9788.068535 164.58063 9796.107029 162.524213 C 9804.107426 160.467796 9811.764949 158.792197 9819.079597 157.57358 C 9824.717972 156.621535 9830.470639 156.164553 9836.375694 156.164553 C 9846.204753 156.164553 9852.643167 156.431126 9855.690938 156.964271 C 9860.30069 157.840152 9864.68186 159.287261 9868.758253 161.229432 C 9872.872743 163.209686 9876.530067 165.83733 9879.768323 169.112364 C 9882.968482 172.425481 9885.597183 176.309824 9887.654428 180.765394 C 9888.454468 182.593321 9888.873537 184.535492 9888.873537 186.591909 C 9888.873537 194.170187 9884.72095 203.538309 9876.415776 214.658194 C 9868.072504 225.778079 9859.76733 235.488938 9851.385962 243.752688 C 9843.004594 252.016438 9836.756665 257.957198 9832.604078 261.536887 L 9850.928797 325.742798 L 9824.260807 344.974106 L 9777.553727 211.61165 C 9777.439436 211.61165 9776.791785 212.259041 9775.648871 213.51574 C 9774.505957 214.810521 9772.982072 216.486121 9771.115313 218.580619 C 9769.248553 220.637036 9768.067543 221.893736 9767.610377 222.388799 C 9767.381794 222.388799 9766.734143 220.941691 9765.629326 218.009392 C 9764.486412 215.077094 9763.000624 211.040423 9761.133865 205.861299 C 9759.267106 200.682175 9757.171764 194.893741 9754.847839 188.572163 C 9752.485817 182.212503 9750.923835 178.251996 9750.123795 176.614478 Z M 9815.917536 204.871172 L 9824.260807 234.879629 C 9828.451491 230.614467 9833.708895 224.787952 9839.918727 217.400084 C 9846.166656 210.012215 9849.29062 204.642681 9849.29062 201.329565 C 9849.29062 200.034784 9848.75726 199.273148 9847.652444 199.082739 C 9844.604673 198.397267 9841.595 198.054531 9838.623424 198.054531 C 9829.670599 198.054531 9822.089271 200.339438 9815.917536 204.871172 Z M 9815.917536 204.871172 " stroke="#0061ff" stroke-width="2.08" stroke-opacity="1" stroke-miterlimit="2"/></g><g clip-path="url(#3f9fceea44)"><path stroke-linecap="butt" transform="matrix(0.102534, 0, 0, 0.102575, -823.390823, 12.324805)" fill-opacity="1" fill="#ffb500" fill-rule="nonzero" stroke-linejoin="round" d="M 9750.123795 176.617661 C 9758.314678 173.875771 9766.048395 171.400455 9773.248752 169.077465 C 9780.487206 166.754475 9788.068535 164.583813 9796.107029 162.527396 C 9804.107426 160.432897 9811.764949 158.79538 9819.079597 157.576762 C 9824.717972 156.624717 9830.470639 156.167735 9836.375694 156.167735 C 9846.204753 156.167735 9852.643167 156.434308 9855.690938 156.967453 C 9860.30069 157.843335 9864.68186 159.290443 9868.758253 161.232615 C 9872.872743 163.212868 9876.530067 165.840512 9879.768323 169.115547 C 9882.968482 172.428663 9885.597183 176.313006 9887.654428 180.768577 C 9888.454468 182.596503 9888.873537 184.538675 9888.873537 186.55701 C 9888.873537 194.173369 9884.72095 203.541492 9876.415776 214.661377 C 9868.072504 225.781261 9859.76733 235.454038 9851.385962 243.75587 C 9843.004594 252.01962 9836.756665 257.96038 9832.604078 261.540069 L 9850.928797 325.74598 L 9824.260807 344.977288 L 9777.553727 211.614833 C 9777.439436 211.614833 9776.791785 212.262223 9775.648871 213.518923 C 9774.505957 214.813704 9772.982072 216.489303 9771.115313 218.583802 C 9769.248553 220.640219 9768.067543 221.896918 9767.610377 222.391981 C 9767.381794 222.391981 9766.734143 220.906791 9765.629326 218.012575 C 9764.486412 215.080276 9763.000624 211.043606 9761.133865 205.864481 C 9759.267106 200.647275 9757.171764 194.896924 9754.847839 188.575345 C 9752.485817 182.215685 9750.923835 178.217096 9750.123795 176.617661 Z M 9815.917536 204.874355 L 9824.260807 234.882811 C 9828.451491 230.61765 9833.708895 224.791135 9839.918727 217.403266 C 9846.166656 210.015397 9849.29062 204.645864 9849.29062 201.332747 C 9849.29062 200.037966 9848.75726 199.27633 9847.652444 199.085921 C 9844.604673 198.400449 9841.595 198.057713 9838.623424 198.057713 C 9829.670599 198.057713 9822.089271 200.342621 9815.917536 204.874355 Z M 9815.917536 204.874355 " stroke="#0061ff" stroke-width="2.08" stroke-opacity="1" stroke-miterlimit="2"/></g><g clip-path="url(#4d81403488)"><path stroke-linecap="butt" transform="matrix(0.100337, 0, 0, 0.0985691, -346.818218, 17.5511)" fill-opacity="1" fill="#0061ff" fill-rule="nonzero" stroke-linejoin="round" d="M 5463.942313 261.710363 L 5515.604093 262.502954 L 5514.825468 306.769169 L 5392.347729 306.769169 L 5397.33093 267.615167 L 5425.711818 266.703687 L 5429.760668 178.409034 L 5385.612621 185.89902 L 5388.143153 137.59059 L 5511.438449 119.202475 L 5514.007912 163.429061 L 5471.456046 171.790898 Z M 5463.942313 261.710363 " stroke="#0061ff" stroke-width="2.08" stroke-opacity="1" stroke-miterlimit="2"/></g><g clip-path="url(#cf241e4c69)"><path fill="#ffb500" d="M 201.417969 42.484375 L 206.601562 42.5625 L 206.523438 46.925781 L 194.234375 46.925781 L 194.734375 43.066406 L 197.582031 42.976562 L 197.988281 34.269531 L 193.558594 35.011719 L 193.8125 30.25 L 206.183594 28.433594 L 206.441406 32.796875 L 202.171875 33.621094 Z M 201.417969 42.484375 " fill-opacity="1" fill-rule="nonzero"/></g><g clip-path="url(#401748719e)"><path stroke-linecap="butt" transform="matrix(0.100337, 0, 0, 0.0985691, -346.818218, 16.687439)" fill="none" stroke-linejoin="round" d="M 5463.942313 261.714213 L 5515.604093 262.506805 L 5514.825468 306.77302 L 5392.347729 306.77302 L 5397.33093 267.619017 L 5425.711818 266.707538 L 5429.760668 178.373255 L 5385.612621 185.902871 L 5388.143153 137.59444 L 5511.438449 119.166696 L 5514.007912 163.432912 L 5471.456046 171.794748 Z M 5463.942313 261.714213 " stroke="#0061ff" stroke-width="2.08" stroke-opacity="1" stroke-miterlimit="2"/></g></svg>